<svg id="Warstwa_1" data-name="Warstwa 1" xmlns="http://www.w3.org/2000/svg" viewBox="0 0 512 512"><defs><style>.cls-1{fill:#91ffc5;}.cls-2{fill:#201f3b;}.cls-3{fill:none;}</style></defs><path class="cls-1" d="M76,189.84c2.63-35.83,29.12-65,65.05-65a65.05,65.05,0,0,1,65,65.05c0,59.61-65,103.59-65,103.59S72,245.31,76,189.84Z"/><path class="cls-1" d="M318.25,295.53c2.63-35.83,29.13-65,65.05-65a65.06,65.06,0,0,1,65.05,65c0,59.62-65.05,103.59-65.05,103.59S314.19,351,318.25,295.53Z"/><path class="cls-2" d="M154.79,279.15a6.4,6.4,0,0,1-3.67-1.15c-3-2.05-72.07-50.89-67.79-109.34h0c3-40.48,33.69-71,71.46-71a71.56,71.56,0,0,1,71.48,71.48c0,26-11.8,53.07-34.13,78.4a197,197,0,0,1-33.75,30.52A6.43,6.43,0,0,1,154.79,279.15ZM96.16,169.6c-3.23,44.05,44.87,84.48,58.67,95.13,13.31-10.13,58.58-48.08,58.58-95.6a58.69,58.69,0,0,0-58.62-58.62c-30.95,0-56.16,25.4-58.63,59.09Z"/><circle class="cls-2" cx="154.71" cy="170.7" r="25.42"/><path class="cls-2" d="M368,384.18a6.4,6.4,0,0,1-3.67-1.15c-2.94-2-72.07-50.89-67.79-109.34h0c3-40.48,33.69-71,71.46-71a71.56,71.56,0,0,1,71.48,71.48c0,26-11.8,53.07-34.13,78.4a197.54,197.54,0,0,1-33.74,30.52A6.49,6.49,0,0,1,368,384.18Zm0-168.64c-30.95,0-56.16,25.4-58.63,59.09h0c-3.23,44.05,44.87,84.48,58.67,95.13,13.32-10.13,58.58-48.08,58.58-95.6A58.68,58.68,0,0,0,368,215.54Zm-65,58.62h0Z"/><circle class="cls-2" cx="367.95" cy="275.72" r="25.42"/><path class="cls-2" d="M355,406.82h0l-25.72-.07a6.43,6.43,0,0,1,0-12.86h0L355,394a6.43,6.43,0,0,1,0,12.86Zm-51.45-.14h0l-25.73-.07a6.43,6.43,0,0,1,0-12.86h0l25.72.07a6.43,6.43,0,0,1,0,12.86Zm-51.44-.14h0l-25.72-.07a6.43,6.43,0,0,1,0-12.86h0l25.72.07a6.43,6.43,0,0,1,0,12.86Zm-51.44-.13h0l-11.13,0a45.43,45.43,0,0,1-16.59-3.09,6.43,6.43,0,0,1,4.69-12,32.89,32.89,0,0,0,11.94,2.2l11.13,0a6.44,6.44,0,0,1,0,12.87ZM158,386a6.45,6.45,0,0,1-6.23-4.87,26.64,26.64,0,0,1-.8-6l-.38-18.69a27.42,27.42,0,0,1,.21-3.39,6.43,6.43,0,1,1,12.76,1.64,14.55,14.55,0,0,0-.11,1.75v.28l.38,18.14a13.61,13.61,0,0,0,.42,3.1,6.43,6.43,0,0,1-4.67,7.8A6.64,6.64,0,0,1,158,386Zm14.69-44.83a6.43,6.43,0,0,1-2.75-12.24,45.67,45.67,0,0,1,19.33-4.23h8.61a6.43,6.43,0,1,1,0,12.86h-8.61a32.66,32.66,0,0,0-13.84,3A6.53,6.53,0,0,1,172.65,341.14Zm50.91-3.61a6.43,6.43,0,0,1,0-12.86h21.8a32.85,32.85,0,0,0,3.3-.16,6.43,6.43,0,0,1,1.22,12.81c-1.49.14-3,.21-4.52.21Zm48.39-11a6.44,6.44,0,0,1-4.84-10.67,15.34,15.34,0,0,0,4.07-10.11,14.26,14.26,0,0,0-1.64-6.6A6.43,6.43,0,0,1,281,293.24,27.09,27.09,0,0,1,284,305.75a28,28,0,0,1-7.25,18.58A6.39,6.39,0,0,1,272,326.53ZM255,288a6.92,6.92,0,0,1-1.55-.19,33.62,33.62,0,0,0-8.12-1h-16a6.43,6.43,0,0,1,0-12.86h16a47.06,47.06,0,0,1,11.21,1.35A6.43,6.43,0,0,1,255,288Zm-51.35-1.17H178A6.43,6.43,0,1,1,178,274h25.73a6.43,6.43,0,0,1,0,12.86Z"/><path class="cls-3" d="M495.23,170.69a6.44,6.44,0,0,1-6.43,6.43H476.74v12.06a6.44,6.44,0,0,1-12.87,0V177.12h-12a6.43,6.43,0,0,1,0-12.86h12v-12a6.44,6.44,0,0,1,12.87,0v12H488.8A6.44,6.44,0,0,1,495.23,170.69Z"/><path class="cls-3" d="M105,358.92a6.44,6.44,0,0,1-6.43,6.43h-12v12a6.43,6.43,0,0,1-12.86,0v-12H61.63a6.43,6.43,0,1,1,0-12.86H73.68V340.43a6.43,6.43,0,0,1,12.86,0v12.06h12A6.43,6.43,0,0,1,105,358.92Z"/><path class="cls-1" d="M342.53,145.45a20.66,20.66,0,1,1,20.66-20.66A20.69,20.69,0,0,1,342.53,145.45Zm0-28.46a7.8,7.8,0,1,0,7.8,7.8A7.81,7.81,0,0,0,342.53,117Z"/></svg>