<svg id="Warstwa_1" data-name="Warstwa 1" xmlns="http://www.w3.org/2000/svg" viewBox="0 0 512 512"><defs><style>.cls-1{fill:#ebebeb;}.cls-2{fill:#91ffc5;}.cls-3{fill:#201f3b;}</style></defs><path class="cls-1" d="M146.45,153.41v0a4.76,4.76,0,0,1-4.76,4.74h0l-8.92,0,0,8.92a4.77,4.77,0,0,1-4.76,4.73h0a4.75,4.75,0,0,1-4.74-4.76v0l0-8.91-8.92,0a4.75,4.75,0,0,1-4.74-4.76h0a4.76,4.76,0,0,1,4.76-4.75h0l8.92,0,0-8.92a4.78,4.78,0,0,1,4.76-4.75h0a4.77,4.77,0,0,1,4.73,4.76v0l0,8.93,8.92,0A4.75,4.75,0,0,1,146.45,153.41Z"/><path class="cls-2" d="M470.8,222.65h-.06a15.3,15.3,0,0,1-15.23-15.34h0a15.3,15.3,0,0,1,15.29-15.23h.06a15.29,15.29,0,0,1-.06,30.58ZM465,207.34a5.77,5.77,0,0,0,5.74,5.79h0a5.77,5.77,0,0,0,0-11.54h0a5.77,5.77,0,0,0-5.77,5.75Z"/><path class="cls-2" d="M429.37,255l7.07,22.72A28.87,28.87,0,0,0,464.09,298l21.76-.07L481,287a49.43,49.43,0,0,0-34.73-28.29Z"/><path class="cls-2" d="M153,245.13l6.17-34.24c1.93-13.17,13.25-22.63,25.93-21.68h0a23.55,23.55,0,0,1,14.79,6.8l6.36,6.29a25.61,25.61,0,0,1,7.41,16.08l.91,37.53Z"/><path class="cls-2" d="M42.16,292.61H62.59A13.09,13.09,0,0,1,75.68,305.7h0a13.09,13.09,0,0,1-13.09,13.09H37.4"/><path class="cls-3" d="M497.74,335.68h-3A56.39,56.39,0,0,0,487.43,311l-15.52-27.69c-10.89-19.42-35.35-32-62.31-32H389.29L338,192.49a15.53,15.53,0,0,0-24.16.92,15.36,15.36,0,0,0-2.43,13.73l12.36,41.54a14,14,0,0,0,1.06,2.62H237.21a4.87,4.87,0,0,0,.3-2.05l-2.4-30.86a31.34,31.34,0,0,0-8.71-19.5l-6.34-6.46a27.93,27.93,0,0,0-17.82-8.36c-15.09-1.14-28.75,10.5-31.07,26.45l-4.35,29.84-3.33-1.12a104.35,104.35,0,0,0-53.74-3.11l-18.83,3.92c-34.39,7.14-58.39,31.71-58.39,59.77v35.86H28.21a4.76,4.76,0,0,0,0,9.52h4.32v3.38A22.36,22.36,0,0,0,54.87,370.9H89.58a52.11,52.11,0,0,0,21.47,23.51H12.52a4.76,4.76,0,0,0,0,9.52H196.35a4.76,4.76,0,1,0,0-9.52h-34a52,52,0,0,0,21.47-23.51H326.86a52.05,52.05,0,0,0,21.45,23.51H318a4.76,4.76,0,0,0,0,9.52H419.88a4.76,4.76,0,0,0,0-9.52H399.59A52.1,52.1,0,0,0,421,370.88a.44.44,0,0,0,.16,0h46.08c15.21,0,27.59-10.06,27.59-22.44V345.2h2.87a4.76,4.76,0,0,0,0-9.52Zm-34.13-47.75,5.47,9.76-16.51.06h-.08a24,24,0,0,1-23-17l-5.81-18.67C441.33,265.4,456.26,274.81,463.61,287.93Zm-143-83.5a6,6,0,0,1,10.3-5.68L375.53,250l-36.79.26a6.11,6.11,0,0,1-3.59-1.21,5.92,5.92,0,0,1-2.22-3.11Zm-140,7.47c1.6-11,10.79-19.1,20.92-18.34a18.47,18.47,0,0,1,11.75,5.55l6.33,6.46a21.76,21.76,0,0,1,6,13.56L228,250a4.88,4.88,0,0,0,.3,1.32H215.74a98.45,98.45,0,0,1-31.56-5.1L176,243.44ZM42.05,299.82a40.39,40.39,0,0,1,3.14-15.54H64.94a8.33,8.33,0,0,1,0,16.66H42.05Zm12.82,61.56a12.82,12.82,0,0,1-12.82-12.8V345.2H85.13c-.13,1.41-.19,2.84-.19,4.28a50.8,50.8,0,0,0,1.39,11.9Zm81.81,30.32a42.22,42.22,0,1,1,42.2-42.22A42.25,42.25,0,0,1,136.68,391.7ZM187,361.38a50.8,50.8,0,0,0,1.39-11.9c0-1.44-.06-2.87-.19-4.28H322.4c-.13,1.41-.19,2.84-.19,4.28a50.8,50.8,0,0,0,1.39,11.9ZM374,391.7a42.22,42.22,0,1,1,42.22-42.22A42.26,42.26,0,0,1,374,391.7Zm0-93.95a51.81,51.81,0,0,0-49.87,37.93H186.53a51.74,51.74,0,0,0-99.72,0H42.05V310.46H64.94a17.85,17.85,0,1,0,0-35.7H50.54c8.79-12.17,23.83-21.54,42.31-25.38l18.84-3.92a94.45,94.45,0,0,1,48.76,2.79l20.7,7a108.15,108.15,0,0,0,34.59,5.59H409.6c1.24,0,2.48,0,3.71.09l7.08,22.72a33.44,33.44,0,0,0,32.1,23.64h.09l21.77-.08h.07l4.71,8.41a47.44,47.44,0,0,1,6.11,20.08H423.82A51.82,51.82,0,0,0,374,297.75Zm111.4,50.71c0,7-8.28,12.92-18.07,12.92h-43a50.8,50.8,0,0,0,1.4-11.9c0-1.44-.06-2.87-.19-4.28h59.85Z"/><circle class="cls-3" cx="373.95" cy="349.49" r="22.38"/><circle class="cls-3" cx="136.67" cy="349.49" r="22.38"/><path class="cls-3" d="M232.76,294h0l-24.68-.13a4.76,4.76,0,0,1,0-9.52h0l24.68.13a4.76,4.76,0,0,1,0,9.52Z"/><path class="cls-3" d="M226.76,403.93H214.6a4.76,4.76,0,1,1,0-9.52h12.16a4.76,4.76,0,1,1,0,9.52Z"/></svg>