<svg id="Warstwa_1" data-name="Warstwa 1" xmlns="http://www.w3.org/2000/svg" viewBox="0 0 512 512"><defs><style>.cls-1{fill:#91ffc5;}.cls-2{fill:#201f3b;}.cls-3{fill:#ebebeb;}</style></defs><path class="cls-1" d="M121.69,199.3c-18.45,26.1-13.2,55.23-36.93,36.55-23.39-16.53-27.39-51.09-8.94-77.19s52.37-33.86,75.75-17.33c36.14,25.47-2.86,19.91-21.31,46"/><path class="cls-1" d="M331,190.47c-20.26-24.72-51.6-25.87-24.63-46A57.87,57.87,0,0,1,379.7,234c-38.05,31.28-19.23-7.38-39.5-32.1"/><path class="cls-2" d="M323.43,387.36a143.24,143.24,0,0,0,49.19-108.11c0-69.13-49.11-127-114.27-140.57a7.3,7.3,0,0,0,.73-3.24,27.59,27.59,0,1,0-55.17,0,7.2,7.2,0,0,0,.39,2.38C136.88,149.59,85.48,208.53,85.48,279.25a143.2,143.2,0,0,0,49,107.9,23.57,23.57,0,1,0,32.69,21.73v-.1a143.41,143.41,0,0,0,123.1.32,23.58,23.58,0,1,0,33.18-21.74ZM218.91,135.44a12.59,12.59,0,1,1,25.17,0,5.88,5.88,0,0,0,.08,1,142.45,142.45,0,0,0-15.11-.79c-3.43,0-6.81.13-10.18.36A3,3,0,0,0,218.91,135.44Zm-75.34,282a8.58,8.58,0,1,1,8.58-8.58A8.59,8.59,0,0,1,143.57,417.46Zm85.48-7.5A130.85,130.85,0,0,1,98.34,279.25c0-72.07,58.63-130.71,130.71-130.71s130.71,58.64,130.71,130.71S301.12,410,229.05,410Zm84.78,7.5a8.58,8.58,0,1,1,8.57-8.58A8.59,8.59,0,0,1,313.83,417.46Z"/><path class="cls-2" d="M229.05,180a99.23,99.23,0,1,0,99.22,99.22A99.33,99.33,0,0,0,229.05,180Zm9.35,185.08.23-9a7.5,7.5,0,1,0-15-.39l-.26,9.74A86.47,86.47,0,0,1,143,286.49l9.48.26h.19a7.51,7.51,0,0,0,.19-15l-9.81-.25A86.47,86.47,0,0,1,223.87,193l-.24,9.39a7.51,7.51,0,0,0,7.31,7.69h.19a7.51,7.51,0,0,0,7.5-7.31l.24-9.37a86.49,86.49,0,0,1,76.22,78.39l-10.16-.26a7.51,7.51,0,0,0-.41,15l10.55.28A86.48,86.48,0,0,1,238.4,365.11Z"/><path class="cls-2" d="M269.86,279v.05a7.5,7.5,0,0,1-7.45,7.5l-30,.17a7.18,7.18,0,0,1-1.69.19,7.5,7.5,0,0,1-7.5-7.5V236.31a7.5,7.5,0,0,1,15,0V271.7l24-.13h0A7.49,7.49,0,0,1,269.86,279Z"/><path class="cls-3" d="M431.1,392.81a6.43,6.43,0,0,1-6.44,6.43H414.61v10.05a6.43,6.43,0,0,1-12.86,0V399.24H391.7a6.43,6.43,0,0,1,0-12.86h10.05V376.32a6.43,6.43,0,0,1,12.86,0v10.06h10.05A6.44,6.44,0,0,1,431.1,392.81Z"/><path class="cls-1" d="M300.65,104.48a19.12,19.12,0,1,1,19.12-19.12A19.14,19.14,0,0,1,300.65,104.48Zm0-25.38a6.26,6.26,0,1,0,6.26,6.26A6.27,6.27,0,0,0,300.65,79.1Z"/><path class="cls-1" d="M424.66,344.65a19.13,19.13,0,1,1,19.12-19.13A19.15,19.15,0,0,1,424.66,344.65Zm0-25.39a6.26,6.26,0,1,0,6.26,6.26A6.27,6.27,0,0,0,424.66,319.26Z"/></svg>